<?xml version="1.0" standalone="no"?>
<!DOCTYPE svg PUBLIC "-//W3C//DTD SVG 20010904//EN"
 "http://www.w3.org/TR/2001/REC-SVG-20010904/DTD/svg10.dtd">
<svg version="1.0" xmlns="http://www.w3.org/2000/svg"
 width="500.000000pt" height="500.000000pt" viewBox="0 0 500.000000 500.000000"
 preserveAspectRatio="xMidYMid meet">

<g transform="translate(0.000000,500.000000) scale(0.100000,-0.100000)"
fill="#000000" stroke="none">
<path d="M3942 4307 c-34 -28 -149 -85 -183 -92 -15 -3 -47 -21 -70 -41 -24
-19 -52 -42 -61 -50 -24 -19 -25 -151 -2 -196 l16 -30 44 48 45 49 -49 -65
c-27 -36 -60 -81 -72 -100 -12 -19 -19 -26 -16 -15 5 18 4 17 -14 -4 -25 -29
-26 -72 -2 -99 18 -23 197 -101 291 -129 l58 -17 42 -87 c24 -47 56 -102 72
-121 26 -32 35 -36 91 -41 35 -3 81 -10 103 -15 40 -8 40 -8 -25 -14 -54 -4
-88 -16 -195 -69 -71 -35 -139 -64 -149 -65 -11 -1 -48 -31 -82 -66 l-62 -65
-78 -5 c-45 -4 -102 -15 -133 -27 -29 -12 -55 -20 -57 -19 -2 2 10 55 26 118
73 290 93 401 86 485 -13 182 -76 283 -240 389 -138 89 -157 97 -270 106 -58
4 -105 4 -111 -1 -13 -13 -45 -11 -45 2 0 21 -197 5 -257 -21 -30 -13 -50 -27
-46 -33 4 -6 1 -7 -6 -2 -15 9 -63 -14 -55 -26 3 -5 -1 -6 -9 -3 -7 2 -23 -3
-33 -13 -11 -10 -13 -13 -4 -8 13 9 13 8 2 -7 -8 -9 -19 -15 -26 -12 -28 11
-98 -105 -145 -241 -10 -27 -28 -102 -40 -165 -12 -63 -29 -149 -37 -190 -9
-41 -18 -118 -21 -171 l-6 -97 -33 20 c-18 11 -39 16 -45 12 -8 -5 -9 -3 -4 6
6 10 4 12 -11 6 -10 -4 -15 -4 -12 0 4 3 -18 37 -49 76 -51 63 -143 132 -193
144 -8 2 -35 8 -60 15 -26 6 -93 9 -156 7 -110 -4 -113 -5 -208 -53 -84 -42
-98 -46 -109 -33 -16 20 -136 51 -222 56 -136 8 -275 -38 -364 -122 -51 -48
-54 -42 -6 13 17 20 12 19 -35 -10 -71 -45 -120 -132 -120 -216 0 -120 46
-270 121 -394 33 -56 38 -70 30 -92 -6 -16 -6 -38 0 -59 14 -54 84 -162 113
-176 30 -15 26 -32 -8 -32 -27 0 -46 -20 -75 -77 -30 -61 -28 -96 10 -128 39
-32 90 -59 146 -75 24 -7 43 -16 43 -20 0 -4 -48 -36 -108 -71 -59 -35 -108
-65 -110 -69 -1 -3 -22 -4 -47 -2 -37 3 -54 -1 -88 -24 -56 -38 -114 -64 -123
-56 -4 4 -5 2 -1 -3 3 -6 -4 -17 -16 -25 -21 -12 -21 -12 -7 5 14 17 14 18 -8
6 -12 -7 -20 -16 -17 -21 3 -5 0 -12 -6 -16 -8 -4 -9 -3 -5 4 4 7 1 12 -9 12
-24 0 -106 -87 -150 -160 -21 -36 -80 -109 -132 -162 -51 -53 -93 -104 -93
-113 0 -9 -9 -33 -20 -55 -36 -71 -21 -202 28 -241 18 -14 41 -19 83 -19 91 0
153 18 223 64 49 32 94 51 188 76 68 19 144 41 170 51 26 9 49 14 52 11 3 -3
6 -24 6 -48 0 -54 34 -96 96 -120 46 -18 74 -53 74 -93 0 -40 201 -217 258
-227 75 -14 200 15 320 75 31 16 113 58 182 94 l125 65 110 6 c92 5 130 13
228 46 143 48 149 51 215 112 30 26 57 48 62 48 4 0 15 15 24 34 11 23 34 44
74 67 229 129 650 451 945 722 152 141 165 149 612 388 50 27 136 83 192 126
393 301 629 536 668 666 26 89 13 312 -25 412 -20 53 -70 146 -109 204 -32 47
-37 60 -29 81 16 42 -7 90 -78 168 -92 101 -148 132 -240 132 l-72 0 -28 44
c-26 40 -121 126 -139 126 -4 0 -33 13 -65 29 -48 24 -69 29 -133 29 -65 1
-82 -3 -105 -21z m73 -4 c-16 -9 -63 -36 -105 -60 -91 -54 -81 -41 20 27 41
27 84 49 95 49 16 0 14 -3 -10 -16z m-1157 -240 c-10 -2 -26 -2 -35 0 -10 3
-2 5 17 5 19 0 27 -2 18 -5z m-151 -19 c-3 -3 -12 -4 -19 -1 -8 3 -5 6 6 6 11
1 17 -2 13 -5z m284 -121 c13 -17 13 -17 -6 -3 -11 8 -22 16 -24 17 -2 2 0 3
6 3 6 0 17 -8 24 -17z m-385 -259 c100 -48 115 -169 33 -268 -75 -90 -202 -87
-259 6 -25 42 -25 83 0 151 23 60 48 89 100 111 46 20 84 20 126 0z m619 -83
c132 -60 151 -226 34 -310 -56 -41 -106 -48 -166 -21 -116 51 -151 139 -98
246 46 93 138 127 230 85z m-555 -452 c89 -29 101 -30 200 -24 132 8 184 -5
218 -55 34 -49 28 -132 -12 -185 -44 -57 -102 -78 -226 -83 -192 -7 -376 60
-424 156 -22 42 -23 130 -2 170 36 69 82 73 246 21z m-580 11 c8 -5 11 -10 5
-10 -5 0 -17 5 -25 10 -8 5 -10 10 -5 10 6 0 17 -5 25 -10z m-991 -84 c-3 -3
-11 5 -18 17 -13 21 -12 21 5 5 10 -10 16 -20 13 -22z m391 -366 c27 -14 25
-41 -10 -166 -20 -74 -36 -111 -52 -124 -29 -23 -35 -19 -43 31 -5 30 -3 45 9
58 20 22 20 68 1 146 -8 33 -14 64 -15 69 0 11 84 0 110 -14z m37 -82 c-3 -8
-6 -5 -6 6 -1 11 2 17 5 13 3 -3 4 -12 1 -19z m-10 -50 c-3 -8 -6 -5 -6 6 -1
11 2 17 5 13 3 -3 4 -12 1 -19z m-87 -279 c-11 -24 -20 -38 -20 -32 0 20 33
98 37 87 2 -6 -5 -31 -17 -55z m-510 -394 c0 -6 -100 -70 -141 -89 -37 -18
-29 -12 68 52 67 42 73 46 73 37z m-185 -105 c3 -5 5 -10 2 -10 -2 0 -31 -11
-65 -24 -71 -28 -73 -17 -4 19 54 28 59 29 67 15z m653 -20 c22 -16 58 -53 80
-82 53 -72 64 -80 102 -73 38 7 134 -16 208 -50 74 -34 168 -126 204 -200 26
-54 28 -69 26 -151 l-2 -90 42 -42 c41 -41 47 -54 42 -97 -2 -24 -28 -55 -45
-55 -7 0 -16 11 -19 24 -7 30 -53 50 -92 40 -16 -4 -31 -11 -34 -15 -3 -5 -23
-16 -45 -25 -37 -15 -38 -15 -25 2 14 16 13 16 -8 5 -13 -7 -35 -10 -49 -6
-16 4 -22 2 -18 -5 3 -5 5 -10 3 -10 -2 1 -28 7 -58 15 -45 11 -49 13 -23 14
52 2 46 17 -8 20 -139 6 -269 91 -321 209 -26 58 -20 119 15 166 22 29 87 66
87 50 0 -3 -14 -23 -32 -45 -45 -56 -51 -131 -15 -192 27 -46 89 -107 109
-107 7 0 31 -10 56 -21 35 -18 56 -21 108 -16 41 3 62 1 58 -5 -11 -17 17 -26
47 -16 37 13 85 68 94 106 20 94 -80 223 -228 293 -23 11 -31 17 -17 14 14 -4
36 -7 49 -7 18 0 20 -2 10 -9 -9 -6 -10 -9 -2 -9 7 0 16 7 20 15 18 31 146
-72 203 -163 16 -26 30 -43 30 -38 0 21 -66 110 -114 151 -95 84 -243 144
-352 145 -38 0 -41 2 -39 24 2 14 6 31 11 38 4 7 -6 1 -23 -14 -16 -16 -34
-28 -40 -28 -5 0 -31 -16 -57 -35 -25 -20 -46 -32 -46 -27 0 10 62 63 125 106
l40 27 -40 -6 c-22 -3 -50 -8 -63 -11 l-23 -5 21 29 c17 23 19 33 11 55 -19
50 -66 66 -125 42 -19 -8 -19 -8 -1 22 19 32 78 72 106 73 9 0 34 -13 57 -30z
m-114 -199 c-2 -3 -12 3 -22 13 -16 17 -16 18 5 5 12 -7 20 -15 17 -18z m396
-121 c8 -5 11 -10 5 -10 -5 0 -17 5 -25 10 -8 5 -10 10 -5 10 6 0 17 -5 25
-10z m-71 -16 c2 -2 -7 -4 -22 -4 -14 0 -28 4 -32 9 -5 9 45 5 54 -5z m-299
-264 c6 -11 8 -20 6 -20 -3 0 -10 9 -16 20 -6 11 -8 20 -6 20 3 0 10 -9 16
-20z m113 -88 c15 -16 15 -19 2 -19 -8 0 -13 3 -10 5 3 3 0 11 -6 19 -17 20
-5 16 14 -5z m58 -49 c13 -17 13 -17 -6 -3 -11 8 -22 16 -24 17 -2 2 0 3 6 3
6 0 17 -8 24 -17z m55 -29 c18 -14 18 -14 -6 -3 -31 14 -36 19 -24 19 6 0 19
-7 30 -16z m91 -30 c-3 -3 -12 -4 -19 -1 -8 3 -5 6 6 6 11 1 17 -2 13 -5z"/>
<path d="M1495 1590 c4 -6 11 -8 16 -5 14 9 11 15 -7 15 -8 0 -12 -5 -9 -10z"/>
<path d="M1975 1079 c-4 -6 -5 -12 -2 -15 2 -3 7 2 10 11 7 17 1 20 -8 4z"/>
</g>
</svg>
